%TF.GenerationSoftware,KiCad,Pcbnew,8.0.1*%
%TF.CreationDate,2024-03-29T13:27:46-04:00*%
%TF.ProjectId,Power_Stage,506f7765-725f-4537-9461-67652e6b6963,rev?*%
%TF.SameCoordinates,Original*%
%TF.FileFunction,Paste,Top*%
%TF.FilePolarity,Positive*%
%FSLAX46Y46*%
G04 Gerber Fmt 4.6, Leading zero omitted, Abs format (unit mm)*
G04 Created by KiCad (PCBNEW 8.0.1) date 2024-03-29 13:27:46*
%MOMM*%
%LPD*%
G01*
G04 APERTURE LIST*
G04 Aperture macros list*
%AMRoundRect*
0 Rectangle with rounded corners*
0 $1 Rounding radius*
0 $2 $3 $4 $5 $6 $7 $8 $9 X,Y pos of 4 corners*
0 Add a 4 corners polygon primitive as box body*
4,1,4,$2,$3,$4,$5,$6,$7,$8,$9,$2,$3,0*
0 Add four circle primitives for the rounded corners*
1,1,$1+$1,$2,$3*
1,1,$1+$1,$4,$5*
1,1,$1+$1,$6,$7*
1,1,$1+$1,$8,$9*
0 Add four rect primitives between the rounded corners*
20,1,$1+$1,$2,$3,$4,$5,0*
20,1,$1+$1,$4,$5,$6,$7,0*
20,1,$1+$1,$6,$7,$8,$9,0*
20,1,$1+$1,$8,$9,$2,$3,0*%
%AMRotRect*
0 Rectangle, with rotation*
0 The origin of the aperture is its center*
0 $1 length*
0 $2 width*
0 $3 Rotation angle, in degrees counterclockwise*
0 Add horizontal line*
21,1,$1,$2,0,0,$3*%
G04 Aperture macros list end*
%ADD10C,0.000000*%
%ADD11RoundRect,0.150000X-0.150000X0.512500X-0.150000X-0.512500X0.150000X-0.512500X0.150000X0.512500X0*%
%ADD12RoundRect,0.237500X0.300000X0.237500X-0.300000X0.237500X-0.300000X-0.237500X0.300000X-0.237500X0*%
%ADD13RoundRect,0.011200X-0.723800X-0.128800X0.723800X-0.128800X0.723800X0.128800X-0.723800X0.128800X0*%
%ADD14R,0.500000X1.600000*%
%ADD15R,1.800000X1.700000*%
%ADD16R,0.900000X0.600000*%
%ADD17RoundRect,0.150000X0.150000X-0.512500X0.150000X0.512500X-0.150000X0.512500X-0.150000X-0.512500X0*%
%ADD18RoundRect,0.250000X-0.625000X0.312500X-0.625000X-0.312500X0.625000X-0.312500X0.625000X0.312500X0*%
%ADD19RoundRect,0.237500X-0.250000X-0.237500X0.250000X-0.237500X0.250000X0.237500X-0.250000X0.237500X0*%
%ADD20RoundRect,0.237500X-0.300000X-0.237500X0.300000X-0.237500X0.300000X0.237500X-0.300000X0.237500X0*%
%ADD21RoundRect,0.237500X0.237500X-0.300000X0.237500X0.300000X-0.237500X0.300000X-0.237500X-0.300000X0*%
%ADD22RoundRect,0.237500X-0.237500X0.300000X-0.237500X-0.300000X0.237500X-0.300000X0.237500X0.300000X0*%
%ADD23RoundRect,0.011200X0.128800X-0.723800X0.128800X0.723800X-0.128800X0.723800X-0.128800X-0.723800X0*%
%ADD24R,0.355600X0.761990*%
%ADD25R,0.965200X0.457200*%
%ADD26R,0.355600X0.753389*%
%ADD27R,2.108200X0.457200*%
%ADD28R,0.355600X0.753388*%
%ADD29R,3.403600X0.355600*%
%ADD30R,0.355600X0.304796*%
%ADD31R,0.355600X0.310933*%
%ADD32R,3.403600X0.457200*%
%ADD33R,0.355598X0.385089*%
%ADD34R,0.355590X0.533400*%
%ADD35RotRect,0.558800X0.889000X315.000000*%
%ADD36RoundRect,0.237500X-0.237500X0.250000X-0.237500X-0.250000X0.237500X-0.250000X0.237500X0.250000X0*%
%ADD37RoundRect,0.237500X0.250000X0.237500X-0.250000X0.237500X-0.250000X-0.237500X0.250000X-0.237500X0*%
%ADD38RoundRect,0.237500X0.237500X-0.250000X0.237500X0.250000X-0.237500X0.250000X-0.237500X-0.250000X0*%
%ADD39RoundRect,0.237500X-0.008839X-0.344715X0.344715X0.008839X0.008839X0.344715X-0.344715X-0.008839X0*%
%ADD40RoundRect,0.237500X0.380070X-0.044194X-0.044194X0.380070X-0.380070X0.044194X0.044194X-0.380070X0*%
%ADD41RoundRect,0.237500X-0.044194X-0.380070X0.380070X0.044194X0.044194X0.380070X-0.380070X-0.044194X0*%
%ADD42RoundRect,0.237500X0.044194X0.380070X-0.380070X-0.044194X-0.044194X-0.380070X0.380070X0.044194X0*%
%ADD43R,1.600000X0.500000*%
%ADD44R,0.600000X0.900000*%
%ADD45R,1.700000X1.800000*%
%ADD46R,1.651000X0.508000*%
%ADD47R,2.260600X5.511800*%
%ADD48RotRect,0.254000X0.711200X135.000000*%
%ADD49RotRect,0.254000X0.711200X45.000000*%
%ADD50RoundRect,0.250000X0.625000X-0.312500X0.625000X0.312500X-0.625000X0.312500X-0.625000X-0.312500X0*%
%ADD51RoundRect,0.237500X0.237500X-0.287500X0.237500X0.287500X-0.237500X0.287500X-0.237500X-0.287500X0*%
%ADD52RoundRect,0.237500X0.008839X0.344715X-0.344715X-0.008839X-0.008839X-0.344715X0.344715X0.008839X0*%
G04 APERTURE END LIST*
D10*
%TO.C,Q1*%
G36*
X110831396Y-132306022D02*
G01*
X111375796Y-132306012D01*
X111375796Y-132763212D01*
X110410596Y-132763212D01*
X110410596Y-132306012D01*
X110475796Y-132306022D01*
X110475796Y-132001222D01*
X110831396Y-132001222D01*
X110831396Y-132306022D01*
G37*
G36*
X110831396Y-132306022D02*
G01*
X111375796Y-132306012D01*
X111375796Y-132763212D01*
X110410596Y-132763212D01*
X110410596Y-132306012D01*
X110475796Y-132306022D01*
X110475796Y-132001222D01*
X110831396Y-132001222D01*
X110831396Y-132306022D01*
G37*
G36*
X108877796Y-132306022D02*
G01*
X109172196Y-132306022D01*
X109172196Y-132001222D01*
X109527796Y-132001222D01*
X109527796Y-132306022D01*
X109726596Y-132306022D01*
X109726596Y-132001222D01*
X110082196Y-132001222D01*
X110080396Y-132763212D01*
X107972196Y-132763212D01*
X107972196Y-132306012D01*
X108522196Y-132306022D01*
X108522196Y-132001222D01*
X108877796Y-132001222D01*
X108877796Y-132306022D01*
G37*
G36*
X108877796Y-132306022D02*
G01*
X109172196Y-132306022D01*
X109172196Y-132001222D01*
X109527796Y-132001222D01*
X109527796Y-132306022D01*
X109726596Y-132306022D01*
X109726596Y-132001222D01*
X110082196Y-132001222D01*
X110080396Y-132763212D01*
X107972196Y-132763212D01*
X107972196Y-132306012D01*
X108522196Y-132306022D01*
X108522196Y-132001222D01*
X108877796Y-132001222D01*
X108877796Y-132306022D01*
G37*
G36*
X111375796Y-137013212D02*
G01*
X110827807Y-137013200D01*
X110827807Y-137318000D01*
X110472207Y-137318000D01*
X110472207Y-137013200D01*
X110177796Y-137013200D01*
X110177796Y-137318000D01*
X109822196Y-137318000D01*
X109822196Y-137013200D01*
X109527784Y-137013200D01*
X109527784Y-137318000D01*
X109172184Y-137318000D01*
X109172184Y-137013200D01*
X108877784Y-137013200D01*
X108877784Y-137318000D01*
X108522184Y-137318000D01*
X108522184Y-137013200D01*
X107972196Y-137013212D01*
X107972196Y-136556012D01*
X111375796Y-136556012D01*
X111375796Y-137013212D01*
G37*
%TO.C,Q6*%
G36*
X172131411Y-132306022D02*
G01*
X172675811Y-132306012D01*
X172675811Y-132763212D01*
X171710611Y-132763212D01*
X171710611Y-132306012D01*
X171775811Y-132306022D01*
X171775811Y-132001222D01*
X172131411Y-132001222D01*
X172131411Y-132306022D01*
G37*
G36*
X172131411Y-132306022D02*
G01*
X172675811Y-132306012D01*
X172675811Y-132763212D01*
X171710611Y-132763212D01*
X171710611Y-132306012D01*
X171775811Y-132306022D01*
X171775811Y-132001222D01*
X172131411Y-132001222D01*
X172131411Y-132306022D01*
G37*
G36*
X170177811Y-132306022D02*
G01*
X170472211Y-132306022D01*
X170472211Y-132001222D01*
X170827811Y-132001222D01*
X170827811Y-132306022D01*
X171026611Y-132306022D01*
X171026611Y-132001222D01*
X171382211Y-132001222D01*
X171380411Y-132763212D01*
X169272211Y-132763212D01*
X169272211Y-132306012D01*
X169822211Y-132306022D01*
X169822211Y-132001222D01*
X170177811Y-132001222D01*
X170177811Y-132306022D01*
G37*
G36*
X170177811Y-132306022D02*
G01*
X170472211Y-132306022D01*
X170472211Y-132001222D01*
X170827811Y-132001222D01*
X170827811Y-132306022D01*
X171026611Y-132306022D01*
X171026611Y-132001222D01*
X171382211Y-132001222D01*
X171380411Y-132763212D01*
X169272211Y-132763212D01*
X169272211Y-132306012D01*
X169822211Y-132306022D01*
X169822211Y-132001222D01*
X170177811Y-132001222D01*
X170177811Y-132306022D01*
G37*
G36*
X172675811Y-137013212D02*
G01*
X172127822Y-137013200D01*
X172127822Y-137318000D01*
X171772222Y-137318000D01*
X171772222Y-137013200D01*
X171477811Y-137013200D01*
X171477811Y-137318000D01*
X171122211Y-137318000D01*
X171122211Y-137013200D01*
X170827799Y-137013200D01*
X170827799Y-137318000D01*
X170472199Y-137318000D01*
X170472199Y-137013200D01*
X170177799Y-137013200D01*
X170177799Y-137318000D01*
X169822199Y-137318000D01*
X169822199Y-137013200D01*
X169272211Y-137013212D01*
X169272211Y-136556012D01*
X172675811Y-136556012D01*
X172675811Y-137013212D01*
G37*
%TO.C,Q4*%
G36*
X146131412Y-132306022D02*
G01*
X146675812Y-132306012D01*
X146675812Y-132763212D01*
X145710612Y-132763212D01*
X145710612Y-132306012D01*
X145775812Y-132306022D01*
X145775812Y-132001222D01*
X146131412Y-132001222D01*
X146131412Y-132306022D01*
G37*
G36*
X146131412Y-132306022D02*
G01*
X146675812Y-132306012D01*
X146675812Y-132763212D01*
X145710612Y-132763212D01*
X145710612Y-132306012D01*
X145775812Y-132306022D01*
X145775812Y-132001222D01*
X146131412Y-132001222D01*
X146131412Y-132306022D01*
G37*
G36*
X144177812Y-132306022D02*
G01*
X144472212Y-132306022D01*
X144472212Y-132001222D01*
X144827812Y-132001222D01*
X144827812Y-132306022D01*
X145026612Y-132306022D01*
X145026612Y-132001222D01*
X145382212Y-132001222D01*
X145380412Y-132763212D01*
X143272212Y-132763212D01*
X143272212Y-132306012D01*
X143822212Y-132306022D01*
X143822212Y-132001222D01*
X144177812Y-132001222D01*
X144177812Y-132306022D01*
G37*
G36*
X144177812Y-132306022D02*
G01*
X144472212Y-132306022D01*
X144472212Y-132001222D01*
X144827812Y-132001222D01*
X144827812Y-132306022D01*
X145026612Y-132306022D01*
X145026612Y-132001222D01*
X145382212Y-132001222D01*
X145380412Y-132763212D01*
X143272212Y-132763212D01*
X143272212Y-132306012D01*
X143822212Y-132306022D01*
X143822212Y-132001222D01*
X144177812Y-132001222D01*
X144177812Y-132306022D01*
G37*
G36*
X146675812Y-137013212D02*
G01*
X146127823Y-137013200D01*
X146127823Y-137318000D01*
X145772223Y-137318000D01*
X145772223Y-137013200D01*
X145477812Y-137013200D01*
X145477812Y-137318000D01*
X145122212Y-137318000D01*
X145122212Y-137013200D01*
X144827800Y-137013200D01*
X144827800Y-137318000D01*
X144472200Y-137318000D01*
X144472200Y-137013200D01*
X144177800Y-137013200D01*
X144177800Y-137318000D01*
X143822200Y-137318000D01*
X143822200Y-137013200D01*
X143272212Y-137013212D01*
X143272212Y-136556012D01*
X146675812Y-136556012D01*
X146675812Y-137013212D01*
G37*
%TO.C,Q2*%
G36*
X120131414Y-132306022D02*
G01*
X120675814Y-132306012D01*
X120675814Y-132763212D01*
X119710614Y-132763212D01*
X119710614Y-132306012D01*
X119775814Y-132306022D01*
X119775814Y-132001222D01*
X120131414Y-132001222D01*
X120131414Y-132306022D01*
G37*
G36*
X120131414Y-132306022D02*
G01*
X120675814Y-132306012D01*
X120675814Y-132763212D01*
X119710614Y-132763212D01*
X119710614Y-132306012D01*
X119775814Y-132306022D01*
X119775814Y-132001222D01*
X120131414Y-132001222D01*
X120131414Y-132306022D01*
G37*
G36*
X118177814Y-132306022D02*
G01*
X118472214Y-132306022D01*
X118472214Y-132001222D01*
X118827814Y-132001222D01*
X118827814Y-132306022D01*
X119026614Y-132306022D01*
X119026614Y-132001222D01*
X119382214Y-132001222D01*
X119380414Y-132763212D01*
X117272214Y-132763212D01*
X117272214Y-132306012D01*
X117822214Y-132306022D01*
X117822214Y-132001222D01*
X118177814Y-132001222D01*
X118177814Y-132306022D01*
G37*
G36*
X118177814Y-132306022D02*
G01*
X118472214Y-132306022D01*
X118472214Y-132001222D01*
X118827814Y-132001222D01*
X118827814Y-132306022D01*
X119026614Y-132306022D01*
X119026614Y-132001222D01*
X119382214Y-132001222D01*
X119380414Y-132763212D01*
X117272214Y-132763212D01*
X117272214Y-132306012D01*
X117822214Y-132306022D01*
X117822214Y-132001222D01*
X118177814Y-132001222D01*
X118177814Y-132306022D01*
G37*
G36*
X120675814Y-137013212D02*
G01*
X120127825Y-137013200D01*
X120127825Y-137318000D01*
X119772225Y-137318000D01*
X119772225Y-137013200D01*
X119477814Y-137013200D01*
X119477814Y-137318000D01*
X119122214Y-137318000D01*
X119122214Y-137013200D01*
X118827802Y-137013200D01*
X118827802Y-137318000D01*
X118472202Y-137318000D01*
X118472202Y-137013200D01*
X118177802Y-137013200D01*
X118177802Y-137318000D01*
X117822202Y-137318000D01*
X117822202Y-137013200D01*
X117272214Y-137013212D01*
X117272214Y-136556012D01*
X120675814Y-136556012D01*
X120675814Y-137013212D01*
G37*
%TO.C,Q5*%
G36*
X162831393Y-132306023D02*
G01*
X163375793Y-132306013D01*
X163375793Y-132763213D01*
X162410593Y-132763213D01*
X162410593Y-132306013D01*
X162475793Y-132306023D01*
X162475793Y-132001223D01*
X162831393Y-132001223D01*
X162831393Y-132306023D01*
G37*
G36*
X162831393Y-132306023D02*
G01*
X163375793Y-132306013D01*
X163375793Y-132763213D01*
X162410593Y-132763213D01*
X162410593Y-132306013D01*
X162475793Y-132306023D01*
X162475793Y-132001223D01*
X162831393Y-132001223D01*
X162831393Y-132306023D01*
G37*
G36*
X160877793Y-132306023D02*
G01*
X161172193Y-132306023D01*
X161172193Y-132001223D01*
X161527793Y-132001223D01*
X161527793Y-132306023D01*
X161726593Y-132306023D01*
X161726593Y-132001223D01*
X162082193Y-132001223D01*
X162080393Y-132763213D01*
X159972193Y-132763213D01*
X159972193Y-132306013D01*
X160522193Y-132306023D01*
X160522193Y-132001223D01*
X160877793Y-132001223D01*
X160877793Y-132306023D01*
G37*
G36*
X160877793Y-132306023D02*
G01*
X161172193Y-132306023D01*
X161172193Y-132001223D01*
X161527793Y-132001223D01*
X161527793Y-132306023D01*
X161726593Y-132306023D01*
X161726593Y-132001223D01*
X162082193Y-132001223D01*
X162080393Y-132763213D01*
X159972193Y-132763213D01*
X159972193Y-132306013D01*
X160522193Y-132306023D01*
X160522193Y-132001223D01*
X160877793Y-132001223D01*
X160877793Y-132306023D01*
G37*
G36*
X163375793Y-137013213D02*
G01*
X162827804Y-137013201D01*
X162827804Y-137318001D01*
X162472204Y-137318001D01*
X162472204Y-137013201D01*
X162177793Y-137013201D01*
X162177793Y-137318001D01*
X161822193Y-137318001D01*
X161822193Y-137013201D01*
X161527781Y-137013201D01*
X161527781Y-137318001D01*
X161172181Y-137318001D01*
X161172181Y-137013201D01*
X160877781Y-137013201D01*
X160877781Y-137318001D01*
X160522181Y-137318001D01*
X160522181Y-137013201D01*
X159972193Y-137013213D01*
X159972193Y-136556013D01*
X163375793Y-136556013D01*
X163375793Y-137013213D01*
G37*
%TO.C,Q3*%
G36*
X136831394Y-132306023D02*
G01*
X137375794Y-132306013D01*
X137375794Y-132763213D01*
X136410594Y-132763213D01*
X136410594Y-132306013D01*
X136475794Y-132306023D01*
X136475794Y-132001223D01*
X136831394Y-132001223D01*
X136831394Y-132306023D01*
G37*
G36*
X136831394Y-132306023D02*
G01*
X137375794Y-132306013D01*
X137375794Y-132763213D01*
X136410594Y-132763213D01*
X136410594Y-132306013D01*
X136475794Y-132306023D01*
X136475794Y-132001223D01*
X136831394Y-132001223D01*
X136831394Y-132306023D01*
G37*
G36*
X134877794Y-132306023D02*
G01*
X135172194Y-132306023D01*
X135172194Y-132001223D01*
X135527794Y-132001223D01*
X135527794Y-132306023D01*
X135726594Y-132306023D01*
X135726594Y-132001223D01*
X136082194Y-132001223D01*
X136080394Y-132763213D01*
X133972194Y-132763213D01*
X133972194Y-132306013D01*
X134522194Y-132306023D01*
X134522194Y-132001223D01*
X134877794Y-132001223D01*
X134877794Y-132306023D01*
G37*
G36*
X134877794Y-132306023D02*
G01*
X135172194Y-132306023D01*
X135172194Y-132001223D01*
X135527794Y-132001223D01*
X135527794Y-132306023D01*
X135726594Y-132306023D01*
X135726594Y-132001223D01*
X136082194Y-132001223D01*
X136080394Y-132763213D01*
X133972194Y-132763213D01*
X133972194Y-132306013D01*
X134522194Y-132306023D01*
X134522194Y-132001223D01*
X134877794Y-132001223D01*
X134877794Y-132306023D01*
G37*
G36*
X137375794Y-137013213D02*
G01*
X136827805Y-137013201D01*
X136827805Y-137318001D01*
X136472205Y-137318001D01*
X136472205Y-137013201D01*
X136177794Y-137013201D01*
X136177794Y-137318001D01*
X135822194Y-137318001D01*
X135822194Y-137013201D01*
X135527782Y-137013201D01*
X135527782Y-137318001D01*
X135172182Y-137318001D01*
X135172182Y-137013201D01*
X134877782Y-137013201D01*
X134877782Y-137318001D01*
X134522182Y-137318001D01*
X134522182Y-137013201D01*
X133972194Y-137013213D01*
X133972194Y-136556013D01*
X137375794Y-136556013D01*
X137375794Y-137013213D01*
G37*
%TD*%
D11*
%TO.C,U17*%
X94950000Y-111662500D03*
X94000000Y-111662500D03*
X93050000Y-111662500D03*
X93050000Y-113937500D03*
X94950000Y-113937500D03*
%TD*%
D12*
%TO.C,C48*%
X94862500Y-109600000D03*
X93137500Y-109600000D03*
%TD*%
D13*
%TO.C,U15*%
X93550000Y-117500000D03*
X93550000Y-118000000D03*
X93550000Y-118500000D03*
X93550000Y-119000000D03*
X93550000Y-119500000D03*
X97850000Y-119500000D03*
X97850000Y-119000000D03*
X97850000Y-118500000D03*
X97850000Y-118000000D03*
X97850000Y-117500000D03*
%TD*%
D14*
%TO.C,U16*%
X94300000Y-123240788D03*
X95900000Y-123240788D03*
X92700000Y-123240788D03*
D15*
X95800000Y-128090788D03*
X92800000Y-128090788D03*
D16*
X97100000Y-125740788D03*
X91500000Y-125740788D03*
%TD*%
D17*
%TO.C,U14*%
X182350000Y-151837500D03*
X183300000Y-151837500D03*
X184250000Y-151837500D03*
X184250000Y-149562500D03*
X182350000Y-149562500D03*
%TD*%
%TO.C,U13*%
X157300000Y-152437500D03*
X158250000Y-152437500D03*
X159200000Y-152437500D03*
X159200000Y-150162500D03*
X157300000Y-150162500D03*
%TD*%
D18*
%TO.C,R31*%
X101700000Y-119737500D03*
X101700000Y-122662500D03*
%TD*%
%TO.C,R17*%
X101700000Y-124737500D03*
X101700000Y-127662500D03*
%TD*%
D19*
%TO.C,R3*%
X100687500Y-117900000D03*
X102512500Y-117900000D03*
%TD*%
D20*
%TO.C,C47*%
X96637500Y-121200000D03*
X98362500Y-121200000D03*
%TD*%
D21*
%TO.C,C46*%
X89700000Y-123225000D03*
X89700000Y-121500000D03*
%TD*%
D22*
%TO.C,C45*%
X89600000Y-117937500D03*
X89600000Y-119662500D03*
%TD*%
%TO.C,C34*%
X91300000Y-117937500D03*
X91300000Y-119662500D03*
%TD*%
D20*
%TO.C,C22*%
X182337500Y-153800000D03*
X184062500Y-153800000D03*
%TD*%
%TO.C,C10*%
X157337500Y-154400000D03*
X159062500Y-154400000D03*
%TD*%
D23*
%TO.C,U12*%
X176474999Y-143115000D03*
X176974999Y-143115000D03*
X177474999Y-143115000D03*
X177974999Y-143115000D03*
X178474999Y-143115000D03*
X178474999Y-138815000D03*
X177974999Y-138815000D03*
X177474999Y-138815000D03*
X176974999Y-138815000D03*
X176474999Y-138815000D03*
%TD*%
D20*
%TO.C,C32*%
X149987500Y-146700000D03*
X151712500Y-146700000D03*
%TD*%
D24*
%TO.C,Q1*%
X110653596Y-132382217D03*
D25*
X110893196Y-132534612D03*
D26*
X108699996Y-132377917D03*
D27*
X109026296Y-132534612D03*
D28*
X109349996Y-132377917D03*
X109904396Y-132377917D03*
D29*
X109673996Y-133384612D03*
X109673996Y-134234611D03*
X109673996Y-135084611D03*
X109673996Y-135934612D03*
D30*
X108699984Y-137165598D03*
D31*
X109349984Y-137162533D03*
D32*
X109673996Y-136784612D03*
D33*
X109999995Y-137125455D03*
D34*
X110650002Y-137051300D03*
%TD*%
D12*
%TO.C,C17*%
X112862502Y-123551300D03*
X111137502Y-123551300D03*
%TD*%
D35*
%TO.C,D3*%
X113330134Y-119756432D03*
X115269870Y-121696168D03*
%TD*%
D21*
%TO.C,C37*%
X178924998Y-136876300D03*
X178924998Y-135151300D03*
%TD*%
D36*
%TO.C,R14*%
X120715614Y-128013800D03*
X120715614Y-129838800D03*
%TD*%
D37*
%TO.C,R21*%
X159112500Y-148100000D03*
X157287500Y-148100000D03*
%TD*%
D38*
%TO.C,R30*%
X150900000Y-136926300D03*
X150900000Y-135101300D03*
%TD*%
D37*
%TO.C,R35*%
X184112500Y-147600000D03*
X182287500Y-147600000D03*
%TD*%
D19*
%TO.C,R8*%
X110237502Y-121926300D03*
X112062502Y-121926300D03*
%TD*%
D35*
%TO.C,D5*%
X165330131Y-119756432D03*
X167269867Y-121696168D03*
%TD*%
D37*
%TO.C,R39*%
X184112500Y-145900000D03*
X182287500Y-145900000D03*
%TD*%
D12*
%TO.C,C39*%
X164862499Y-125176623D03*
X163137499Y-125176623D03*
%TD*%
D39*
%TO.C,R32*%
X170585830Y-119467372D03*
X171876300Y-118176902D03*
%TD*%
D40*
%TO.C,C30*%
X142859880Y-120136180D03*
X141640120Y-118916420D03*
%TD*%
D37*
%TO.C,R1*%
X162257501Y-112300000D03*
X160432501Y-112300000D03*
%TD*%
D24*
%TO.C,Q6*%
X171953611Y-132382217D03*
D25*
X172193211Y-132534612D03*
D26*
X170000011Y-132377917D03*
D27*
X170326311Y-132534612D03*
D28*
X170650011Y-132377917D03*
X171204411Y-132377917D03*
D29*
X170974011Y-133384612D03*
X170974011Y-134234611D03*
X170974011Y-135084611D03*
X170974011Y-135934612D03*
D30*
X169999999Y-137165598D03*
D31*
X170649999Y-137162533D03*
D32*
X170974011Y-136784612D03*
D33*
X171300010Y-137125455D03*
D34*
X171950017Y-137051300D03*
%TD*%
D12*
%TO.C,C21*%
X148237500Y-146700001D03*
X146512500Y-146700001D03*
%TD*%
D36*
%TO.C,R40*%
X163415593Y-128013801D03*
X163415593Y-129838801D03*
%TD*%
D38*
%TO.C,R16*%
X124900000Y-136912500D03*
X124900000Y-135087500D03*
%TD*%
D18*
%TO.C,R9*%
X121375002Y-148537500D03*
X121375002Y-151462500D03*
%TD*%
D41*
%TO.C,C35*%
X170515119Y-121836180D03*
X171734879Y-120616420D03*
%TD*%
%TO.C,C23*%
X144515120Y-121836180D03*
X145734880Y-120616420D03*
%TD*%
D42*
%TO.C,C14*%
X124654165Y-124970233D03*
X123434405Y-126189993D03*
%TD*%
D12*
%TO.C,C29*%
X138862500Y-123551300D03*
X137137500Y-123551300D03*
%TD*%
D41*
%TO.C,C36*%
X172190120Y-122509880D03*
X173409880Y-121290120D03*
%TD*%
D36*
%TO.C,R27*%
X139050594Y-128013800D03*
X139050594Y-129838800D03*
%TD*%
D20*
%TO.C,C19*%
X124512502Y-145100000D03*
X126237502Y-145100000D03*
%TD*%
D43*
%TO.C,U7*%
X148500000Y-143600000D03*
X148500000Y-142000000D03*
X148500000Y-140400000D03*
D44*
X146000000Y-139200000D03*
D45*
X143650000Y-140500000D03*
X143650000Y-143500000D03*
D44*
X146000000Y-144800000D03*
%TD*%
D43*
%TO.C,U4*%
X122500002Y-143600000D03*
X122500002Y-142000000D03*
X122500002Y-140400000D03*
D44*
X120000002Y-139200000D03*
D45*
X117650002Y-140500000D03*
X117650002Y-143500000D03*
D44*
X120000002Y-144800000D03*
%TD*%
D46*
%TO.C,U2*%
X120180000Y-112410000D03*
X120180000Y-109870000D03*
X120180000Y-104790000D03*
X110020000Y-104790000D03*
X110020000Y-112410000D03*
%TD*%
D41*
%TO.C,C12*%
X120190120Y-122409880D03*
X121409880Y-121190120D03*
%TD*%
D47*
%TO.C,C1*%
X136206700Y-142000000D03*
X131253700Y-142000000D03*
%TD*%
D37*
%TO.C,R7*%
X133012500Y-148100000D03*
X131187500Y-148100000D03*
%TD*%
D24*
%TO.C,Q4*%
X145953612Y-132382217D03*
D25*
X146193212Y-132534612D03*
D26*
X144000012Y-132377917D03*
D27*
X144326312Y-132534612D03*
D28*
X144650012Y-132377917D03*
X145204412Y-132377917D03*
D29*
X144974012Y-133384612D03*
X144974012Y-134234611D03*
X144974012Y-135084611D03*
X144974012Y-135934612D03*
D30*
X144000000Y-137165598D03*
D31*
X144650000Y-137162533D03*
D32*
X144974012Y-136784612D03*
D33*
X145300011Y-137125455D03*
D34*
X145950018Y-137051300D03*
%TD*%
D41*
%TO.C,C24*%
X146090120Y-122509880D03*
X147309880Y-121290120D03*
%TD*%
D39*
%TO.C,R33*%
X174032975Y-122914518D03*
X175323445Y-121624048D03*
%TD*%
D43*
%TO.C,U10*%
X174499999Y-143600000D03*
X174499999Y-142000000D03*
X174499999Y-140400000D03*
D44*
X171999999Y-139200000D03*
D45*
X169649999Y-140500000D03*
X169649999Y-143500000D03*
D44*
X171999999Y-144800000D03*
%TD*%
D38*
%TO.C,R2*%
X107180000Y-110920000D03*
X107180000Y-109095000D03*
%TD*%
D48*
%TO.C,U11*%
X166839071Y-125590373D03*
X167192714Y-125944015D03*
X167546356Y-126297658D03*
X167899999Y-126651300D03*
D49*
X169832909Y-126651300D03*
X170186552Y-126297658D03*
X170540194Y-125944015D03*
X170893837Y-125590373D03*
D48*
X170893837Y-124364747D03*
X170540194Y-124011105D03*
X170186552Y-123657462D03*
X169832909Y-123303820D03*
X169479267Y-122950177D03*
D49*
X168253641Y-122950177D03*
X166839071Y-124364747D03*
%TD*%
D24*
%TO.C,Q2*%
X119953614Y-132382217D03*
D25*
X120193214Y-132534612D03*
D26*
X118000014Y-132377917D03*
D27*
X118326314Y-132534612D03*
D28*
X118650014Y-132377917D03*
X119204414Y-132377917D03*
D29*
X118974014Y-133384612D03*
X118974014Y-134234611D03*
X118974014Y-135084611D03*
X118974014Y-135934612D03*
D30*
X118000002Y-137165598D03*
D31*
X118650002Y-137162533D03*
D32*
X118974014Y-136784612D03*
D33*
X119300013Y-137125455D03*
D34*
X119950020Y-137051300D03*
%TD*%
D36*
%TO.C,R43*%
X174350610Y-128013800D03*
X174350610Y-129838800D03*
%TD*%
D21*
%TO.C,C13*%
X126925002Y-136876300D03*
X126925002Y-135151300D03*
%TD*%
D40*
%TO.C,C18*%
X116859882Y-120136180D03*
X115640122Y-118916420D03*
%TD*%
D20*
%TO.C,C31*%
X150512500Y-145090650D03*
X152237500Y-145090650D03*
%TD*%
D12*
%TO.C,C15*%
X112862502Y-125176623D03*
X111137502Y-125176623D03*
%TD*%
%TO.C,C4*%
X175207501Y-112400000D03*
X173482501Y-112400000D03*
%TD*%
D19*
%TO.C,R36*%
X162237499Y-121926300D03*
X164062499Y-121926300D03*
%TD*%
D22*
%TO.C,C6*%
X123500000Y-110300000D03*
X123500000Y-112025000D03*
%TD*%
D37*
%TO.C,R25*%
X159112500Y-146400000D03*
X157287500Y-146400000D03*
%TD*%
D50*
%TO.C,R10*%
X124000000Y-151462500D03*
X124000000Y-148537500D03*
%TD*%
D18*
%TO.C,R23*%
X147375000Y-148537500D03*
X147375000Y-151462500D03*
%TD*%
D39*
%TO.C,R5*%
X122032979Y-122914518D03*
X123323449Y-121624048D03*
%TD*%
D20*
%TO.C,C28*%
X143287500Y-128926300D03*
X145012500Y-128926300D03*
%TD*%
D12*
%TO.C,C41*%
X164862499Y-123551300D03*
X163137499Y-123551300D03*
%TD*%
D20*
%TO.C,C20*%
X123987502Y-146700000D03*
X125712502Y-146700000D03*
%TD*%
D42*
%TO.C,C26*%
X150654162Y-124970233D03*
X149434402Y-126189993D03*
%TD*%
D23*
%TO.C,U6*%
X124475002Y-143115000D03*
X124975002Y-143115000D03*
X125475002Y-143115000D03*
X125975002Y-143115000D03*
X126475002Y-143115000D03*
X126475002Y-138815000D03*
X125975002Y-138815000D03*
X125475002Y-138815000D03*
X124975002Y-138815000D03*
X124475002Y-138815000D03*
%TD*%
D51*
%TO.C,D1*%
X158345001Y-112275000D03*
X158345001Y-110525000D03*
%TD*%
D50*
%TO.C,R24*%
X150000000Y-151462500D03*
X150000000Y-148537500D03*
%TD*%
D39*
%TO.C,R4*%
X118585833Y-119467372D03*
X119876303Y-118176902D03*
%TD*%
D20*
%TO.C,C44*%
X175987499Y-146700000D03*
X177712499Y-146700000D03*
%TD*%
D21*
%TO.C,C25*%
X152924999Y-136876300D03*
X152924999Y-135151300D03*
%TD*%
D52*
%TO.C,R20*%
X149540469Y-123785830D03*
X148249999Y-125076300D03*
%TD*%
D24*
%TO.C,Q5*%
X162653593Y-132382218D03*
D25*
X162893193Y-132534613D03*
D26*
X160699993Y-132377918D03*
D27*
X161026293Y-132534613D03*
D28*
X161349993Y-132377918D03*
X161904393Y-132377918D03*
D29*
X161673993Y-133384613D03*
X161673993Y-134234612D03*
X161673993Y-135084612D03*
X161673993Y-135934613D03*
D30*
X160699981Y-137165599D03*
D31*
X161349981Y-137162534D03*
D32*
X161673993Y-136784613D03*
D33*
X161999992Y-137125456D03*
D34*
X162649999Y-137051301D03*
%TD*%
D20*
%TO.C,C40*%
X169287499Y-128926300D03*
X171012499Y-128926300D03*
%TD*%
D23*
%TO.C,U9*%
X150475000Y-143115000D03*
X150975000Y-143115000D03*
X151475000Y-143115000D03*
X151975000Y-143115000D03*
X152475000Y-143115000D03*
X152475000Y-138815000D03*
X151975000Y-138815000D03*
X151475000Y-138815000D03*
X150975000Y-138815000D03*
X150475000Y-138815000D03*
%TD*%
D36*
%TO.C,R42*%
X172715610Y-128013800D03*
X172715610Y-129838800D03*
%TD*%
D40*
%TO.C,C42*%
X168859879Y-120136180D03*
X167640119Y-118916420D03*
%TD*%
D47*
%TO.C,C3*%
X157400000Y-141900000D03*
X162353000Y-141900000D03*
%TD*%
D42*
%TO.C,C38*%
X176654161Y-124970233D03*
X175434401Y-126189993D03*
%TD*%
D38*
%TO.C,R44*%
X176900000Y-136926300D03*
X176900000Y-135101300D03*
%TD*%
D19*
%TO.C,R22*%
X136237500Y-121926300D03*
X138062500Y-121926300D03*
%TD*%
D12*
%TO.C,C9*%
X122237502Y-146700000D03*
X120512502Y-146700000D03*
%TD*%
%TO.C,C33*%
X174237499Y-146700001D03*
X172512499Y-146700001D03*
%TD*%
D36*
%TO.C,R41*%
X165050593Y-128013800D03*
X165050593Y-129838800D03*
%TD*%
D20*
%TO.C,C43*%
X176512499Y-145090650D03*
X178237499Y-145090650D03*
%TD*%
%TO.C,C8*%
X131337500Y-154300000D03*
X133062500Y-154300000D03*
%TD*%
D18*
%TO.C,R37*%
X172800000Y-148488800D03*
X172800000Y-151413800D03*
%TD*%
D17*
%TO.C,U3*%
X131250000Y-152437500D03*
X132200000Y-152437500D03*
X133150000Y-152437500D03*
X133150000Y-150162500D03*
X131250000Y-150162500D03*
%TD*%
D52*
%TO.C,R34*%
X175540468Y-123785830D03*
X174249998Y-125076300D03*
%TD*%
D47*
%TO.C,C2*%
X105323500Y-141900000D03*
X110276500Y-141900000D03*
%TD*%
D35*
%TO.C,D4*%
X139330132Y-119756432D03*
X141269868Y-121696168D03*
%TD*%
D51*
%TO.C,D2*%
X107180000Y-114882500D03*
X107180000Y-113132500D03*
%TD*%
D39*
%TO.C,R19*%
X148032976Y-122914518D03*
X149323446Y-121624048D03*
%TD*%
D20*
%TO.C,C5*%
X164445001Y-112300000D03*
X166170001Y-112300000D03*
%TD*%
D41*
%TO.C,C11*%
X118515122Y-121836180D03*
X119734882Y-120616420D03*
%TD*%
D22*
%TO.C,C7*%
X107180000Y-104790000D03*
X107180000Y-106515000D03*
%TD*%
D36*
%TO.C,R28*%
X146715611Y-128013800D03*
X146715611Y-129838800D03*
%TD*%
D52*
%TO.C,R6*%
X123540472Y-123785830D03*
X122250002Y-125076300D03*
%TD*%
D48*
%TO.C,U8*%
X140839072Y-125590373D03*
X141192715Y-125944015D03*
X141546357Y-126297658D03*
X141900000Y-126651300D03*
D49*
X143832910Y-126651300D03*
X144186553Y-126297658D03*
X144540195Y-125944015D03*
X144893838Y-125590373D03*
D48*
X144893838Y-124364747D03*
X144540195Y-124011105D03*
X144186553Y-123657462D03*
X143832910Y-123303820D03*
X143479268Y-122950177D03*
D49*
X142253642Y-122950177D03*
X140839072Y-124364747D03*
%TD*%
D12*
%TO.C,C27*%
X138862500Y-125176623D03*
X137137500Y-125176623D03*
%TD*%
D20*
%TO.C,C16*%
X117287502Y-128926300D03*
X119012502Y-128926300D03*
%TD*%
D37*
%TO.C,R11*%
X133012500Y-146400000D03*
X131187500Y-146400000D03*
%TD*%
D36*
%TO.C,R12*%
X111415596Y-128013800D03*
X111415596Y-129838800D03*
%TD*%
%TO.C,R29*%
X148350611Y-128013800D03*
X148350611Y-129838800D03*
%TD*%
%TO.C,R26*%
X137415594Y-128013801D03*
X137415594Y-129838801D03*
%TD*%
D48*
%TO.C,U5*%
X114839074Y-125590373D03*
X115192717Y-125944015D03*
X115546359Y-126297658D03*
X115900002Y-126651300D03*
D49*
X117832912Y-126651300D03*
X118186555Y-126297658D03*
X118540197Y-125944015D03*
X118893840Y-125590373D03*
D48*
X118893840Y-124364747D03*
X118540197Y-124011105D03*
X118186555Y-123657462D03*
X117832912Y-123303820D03*
X117479270Y-122950177D03*
D49*
X116253644Y-122950177D03*
X114839074Y-124364747D03*
%TD*%
D36*
%TO.C,R13*%
X113050596Y-128013800D03*
X113050596Y-129838800D03*
%TD*%
D24*
%TO.C,Q3*%
X136653594Y-132382218D03*
D25*
X136893194Y-132534613D03*
D26*
X134699994Y-132377918D03*
D27*
X135026294Y-132534613D03*
D28*
X135349994Y-132377918D03*
X135904394Y-132377918D03*
D29*
X135673994Y-133384613D03*
X135673994Y-134234612D03*
X135673994Y-135084612D03*
X135673994Y-135934613D03*
D30*
X134699982Y-137165599D03*
D31*
X135349982Y-137162534D03*
D32*
X135673994Y-136784613D03*
D33*
X135999993Y-137125456D03*
D34*
X136650000Y-137051301D03*
%TD*%
D39*
%TO.C,R18*%
X144585831Y-119467372D03*
X145876301Y-118176902D03*
%TD*%
D50*
%TO.C,R38*%
X175400000Y-151413799D03*
X175400000Y-148488799D03*
%TD*%
D36*
%TO.C,R15*%
X122350614Y-128013800D03*
X122350614Y-129838800D03*
%TD*%
M02*
